<?xml version="1.0" standalone="no"?><svg xmlns="http://www.w3.org/2000/svg" viewBox="0 0 1440 320"><path fill="#2f5a62" fill-opacity="1" d="M0,256L24,250.7C48,245,96,235,144,245.3C192,256,240,288,288,298.7C336,309,384,299,432,288C480,277,528,267,576,272C624,277,672,299,720,288C768,277,816,235,864,229.3C912,224,960,256,1008,272C1056,288,1104,288,1152,266.7C1200,245,1248,203,1296,160C1344,117,1392,75,1416,53.3L1440,32L1440,0L1416,0C1392,0,1344,0,1296,0C1248,0,1200,0,1152,0C1104,0,1056,0,1008,0C960,0,912,0,864,0C816,0,768,0,720,0C672,0,624,0,576,0C528,0,480,0,432,0C384,0,336,0,288,0C240,0,192,0,144,0C96,0,48,0,24,0L0,0Z"></path></svg>