<?xml version="1.0" standalone="no"?><svg xmlns="http://www.w3.org/2000/svg" viewBox="0 0 1440 320"><path fill="#c1ebe2" fill-opacity="1" d="M0,32L34.3,42.7C68.6,53,137,75,206,74.7C274.3,75,343,53,411,42.7C480,32,549,32,617,58.7C685.7,85,754,139,823,160C891.4,181,960,171,1029,170.7C1097.1,171,1166,181,1234,160C1302.9,139,1371,85,1406,58.7L1440,32L1440,0L1405.7,0C1371.4,0,1303,0,1234,0C1165.7,0,1097,0,1029,0C960,0,891,0,823,0C754.3,0,686,0,617,0C548.6,0,480,0,411,0C342.9,0,274,0,206,0C137.1,0,69,0,34,0L0,0Z"></path></svg>